<svg xmlns="http://www.w3.org/2000/svg" width="13" height="13"><g clip-path="url(#clip0)"><path d="M5.493 6.043V1.007a1.008 1.008 0 0 1 2.015 0v5.036a1.008 1.008 0 0 1-2.015 0zm5-4.566a.756.756 0 0 0-.935 1.186 4.92 4.92 0 0 1 1.885 3.884A4.948 4.948 0 0 1 6.5 11.49a4.948 4.948 0 0 1-4.942-4.942c0-1.523.686-2.937 1.883-3.882a.756.756 0 0 0-.936-1.187 6.421 6.421 0 0 0-2.458 5.07A6.46 6.46 0 0 0 6.5 13a6.46 6.46 0 0 0 6.452-6.453 6.422 6.422 0 0 0-2.46-5.07z"/></g><defs><clipPath id="clip0"><path fill="#fff" d="M0 0h13v13H0z"/></clipPath></defs></svg>