<svg xmlns="http://www.w3.org/2000/svg" width="13" height="13"><path d="M12.525 3.923l-.575.575-3.448-3.447.575-.575a1.625 1.625 0 0 1 2.299 0l1.149 1.15a1.626 1.626 0 0 1 0 2.297zM4.48 10.817a.406.406 0 1 0 .574.574l6.32-6.318-.575-.575-6.32 6.32zM1.608 7.945a.406.406 0 1 0 .574.574l6.32-6.32-.574-.574-6.32 6.32zm7.468-5.171l-6.32 6.32a.813.813 0 0 0 1.15 1.148l6.32-6.319-1.15-1.15zm-5.171 9.19a1.186 1.186 0 0 1-.323-.695 1.647 1.647 0 0 1-.251.025c-.434 0-.842-.17-1.149-.477a1.615 1.615 0 0 1-.476-1.149c0-.079.012-.156.023-.233a1.205 1.205 0 0 1-.696-.341c-.018-.018-.024-.043-.041-.063L0 13l3.958-.991c-.017-.016-.037-.028-.053-.045z"/></svg>