<svg xmlns="http://www.w3.org/2000/svg" width="24" height="24"><path d="M7.281 2.678c-2.415 0-4.38 2.084-4.38 4.645 0 2.56 1.965 4.644 4.38 4.644 2.416 0 4.38-2.083 4.38-4.644s-1.964-4.645-4.38-4.645zm9.959.665h-.03a3.634 3.634 0 0 0-2.666 1.206 4.078 4.078 0 0 0-1.06 2.805 4.079 4.079 0 0 0 1.107 2.788 3.635 3.635 0 0 0 2.655 1.161h.03a3.634 3.634 0 0 0 2.667-1.205 4.078 4.078 0 0 0 1.061-2.806c-.018-2.184-1.703-3.949-3.764-3.949zm.185 8.721h-.364a6.55 6.55 0 0 0-4.407 1.7 8.438 8.438 0 0 1 3.302 6.275H24v-1.4a6.582 6.582 0 0 0-6.575-6.575zm-2.877 7.974a7.052 7.052 0 0 0-2.833-5.221A7.029 7.029 0 0 0 7.5 13.42h-.438A7.062 7.062 0 0 0 0 20.484v.838h14.562v-.838c0-.15-.005-.299-.014-.446z"/></svg>