<svg xmlns="http://www.w3.org/2000/svg" width="23" height="23"><path d="M22.286 14.564l-2.364-1.946a8.177 8.177 0 0 0 0-2.236l2.364-1.946a.75.75 0 0 0 .173-.954l-2-3.464a.748.748 0 0 0-.912-.327l-2.873 1.076a8.43 8.43 0 0 0-1.93-1.114L14.24.627A.75.75 0 0 0 13.5 0h-4a.75.75 0 0 0-.74.627l-.504 3.026a8.437 8.437 0 0 0-1.93 1.114L3.454 3.691a.748.748 0 0 0-.913.327l-2 3.464a.75.75 0 0 0 .173.954l2.364 1.946a8.177 8.177 0 0 0 0 2.236L.714 14.564a.75.75 0 0 0-.173.954l2 3.464c.184.318.57.457.913.327l2.872-1.076a8.445 8.445 0 0 0 1.93 1.114l.504 3.026A.75.75 0 0 0 9.5 23h4a.75.75 0 0 0 .74-.627l.504-3.026a8.432 8.432 0 0 0 1.93-1.114l2.873 1.076c.343.13.729-.01.912-.327l2-3.464a.75.75 0 0 0-.173-.954zM13 21.5h-3v-4.198c.49.127.992.197 1.5.197.511 0 1.007-.068 1.5-.197V21.5zm.165-5.823a.639.639 0 0 1-.052.018 4.468 4.468 0 0 1-1.613.304 4.47 4.47 0 0 1-1.664-.321A4.481 4.481 0 0 1 7 11.5a4.46 4.46 0 0 1 1.689-3.511.5.5 0 0 1 .811.39v2.871c0 .09.048.173.126.217l1.75 1a.25.25 0 0 0 .248 0l1.75-1a.251.251 0 0 0 .126-.217V8.38a.5.5 0 0 1 .812-.391A4.461 4.461 0 0 1 16 11.5a4.48 4.48 0 0 1-2.835 4.177z"/></svg>