<svg xmlns="http://www.w3.org/2000/svg" width="22" height="22"><g clip-path="url(#clip0)"><path d="M14.252 7.687l-3.399-3.394v1.879a1.52 1.52 0 0 0 1.516 1.515h1.883z"/><path d="M9.844 6.172V3.58H2.657a1.52 1.52 0 0 0-1.515 1.515v15.389A1.52 1.52 0 0 0 2.657 22H13.44a1.52 1.52 0 0 0 1.515-1.515V8.697h-2.591a2.528 2.528 0 0 1-2.52-2.525zm-6.147 4.58h5.116a.505.505 0 0 1 0 1.01H3.697a.505.505 0 0 1 0-1.01zm9.207 8.172H3.697a.505.505 0 0 1 0-1.01h9.207a.505.505 0 0 1 0 1.01zm.505-4.086a.507.507 0 0 1-.505.505H3.697a.505.505 0 0 1 0-1.01h9.207a.507.507 0 0 1 .505.505zm4.839-10.732h1.883L16.732.712v1.88a1.52 1.52 0 0 0 1.516 1.514z"/><path d="M18.247 5.116a2.526 2.526 0 0 1-2.525-2.525V0H9.045A1.52 1.52 0 0 0 7.53 1.515v1.056h2.818a.53.53 0 0 1 .364.151l.005.005 5.106 5.091a.5.5 0 0 1 .146.359v9.732h3.354a1.52 1.52 0 0 0 1.515-1.515V5.116h-2.59zm.54 10.227h-1.54a.505.505 0 1 1 0-1.01h1.54a.505.505 0 0 1 0 1.01zm0-3.58h-1.54a.505.505 0 1 1 0-1.01h1.54a.505.505 0 0 1 0 1.01z"/></g><defs><clipPath id="clip0"><path fill="#fff" d="M0 0h22v22H0z"/></clipPath></defs></svg>