<svg xmlns="http://www.w3.org/2000/svg" width="17" height="17" fill="none"><g clip-path="url(#clip0)"><path fill="#449AFF" d="M15.399 1.602a5.485 5.485 0 0 0-7.748 0 5.477 5.477 0 0 0-1.334 5.56l-6.17 6.17a.498.498 0 0 0-.146.352v2.818c0 .275.223.498.498.498h2.818a.498.498 0 0 0 .352-.146l.704-.705a.498.498 0 0 0 .142-.41l-.087-.757 1.049-.098a.497.497 0 0 0 .448-.45l.1-1.048.756.088a.5.5 0 0 0 .555-.495v-.927h.91a.498.498 0 0 0 .353-.146l1.277-1.26c1.95.632 4.064.164 5.523-1.296a5.485 5.485 0 0 0 0-7.748zm-1.41 3.521a1.495 1.495 0 0 1-2.112 0 1.495 1.495 0 0 1 0-2.112 1.495 1.495 0 0 1 2.113 0c.582.582.582 1.53 0 2.112z"/></g><defs><clipPath id="clip0"><path fill="#fff" d="M0 0h17v17H0z"/></clipPath></defs></svg>