<?xml version="1.0" encoding="UTF-8"?><svg xmlns="http://www.w3.org/2000/svg" xmlns:xlink="http://www.w3.org/1999/xlink" width="377" height="426"><defs><circle id="a" cx="97" cy="97" r="97"/></defs><g fill="none" fill-rule="evenodd"><path fill="#6DB3F2" d="M286.89 340.714c6.403 9.963 3.514 23.242-6.45 29.646-9.96 6.404-23.242 3.512-29.648-6.449a112.771 112.771 0 0 1-17.761-58.1c-.464-19.974 4.338-40.27 14.979-58.7 10.64-18.434 25.818-32.739 43.35-42.323a112.679 112.679 0 0 1 59.193-13.667c11.832.562 20.975 10.617 20.41 22.448-.565 11.828-10.621 20.973-22.45 20.41-12.726-.593-25.431 2.365-36.605 8.476-10.697 5.85-20.027 14.692-26.647 26.161-6.623 11.472-9.62 23.973-9.33 36.161.293 12.73 4.08 25.208 10.959 35.937zm31.655-52.88c-8.516 14.753-3.461 33.618 11.293 42.135 14.753 8.52 33.617 3.463 42.135-11.29 8.515-14.753 3.463-33.618-11.29-42.135-14.753-8.52-33.616-3.463-42.138 11.29z"/><path fill="#FF86AE" d="M348.514 190.789c11.828-.565 21.884 8.578 22.449 20.407.565 11.832-8.578 21.885-20.41 22.45a112.689 112.689 0 0 1-59.192-13.667c-17.533-9.585-32.71-23.892-43.351-42.322-10.641-18.432-15.443-38.73-14.98-58.703a112.764 112.764 0 0 1 17.762-58.098c6.406-9.963 19.688-12.852 29.648-6.451 9.964 6.404 12.853 19.684 6.45 29.648-6.878 10.727-10.666 23.207-10.96 35.936-.283 12.19 2.708 24.689 9.33 36.162 6.62 11.47 15.956 20.317 26.648 26.16 11.174 6.11 23.879 9.069 36.606 8.478zm-29.97-53.86c8.523 14.757 27.386 19.812 42.14 11.293 14.752-8.515 19.804-27.382 11.289-42.135-8.518-14.754-27.382-19.807-42.135-11.291-14.754 8.518-19.81 27.382-11.293 42.134z"/><path fill="#6DB3F2" d="M249.77 62.664c5.428-10.526 18.372-14.662 28.903-9.235 10.526 5.425 14.66 18.371 9.235 28.9a112.713 112.713 0 0 1-41.435 44.429c-17.065 10.391-37.043 16.379-58.325 16.379-21.285 0-41.264-5.988-58.328-16.379a112.713 112.713 0 0 1-41.432-44.429c-5.427-10.529-1.293-23.475 9.233-28.9 10.53-5.427 23.474-1.291 28.904 9.235 5.852 11.322 14.766 20.842 25.643 27.462 10.41 6.342 22.732 9.998 35.98 9.998 13.246 0 25.57-3.656 35.98-9.998 10.878-6.62 19.79-16.14 25.641-27.462zm-61.622-.974c17.035 0 30.844-13.811 30.844-30.846C218.992 13.808 205.183 0 188.148 0c-17.037 0-30.846 13.808-30.846 30.844 0 17.035 13.81 30.846 30.846 30.846z"/><path fill="#FF86AE" d="M89.322 83.813c-6.402-9.964-3.509-23.244 6.45-29.648 9.965-6.401 23.242-3.512 29.648 6.451a112.717 112.717 0 0 1 17.761 58.098c.465 19.974-4.337 40.271-14.979 58.703-10.64 18.43-25.817 32.737-43.347 42.322a112.697 112.697 0 0 1-59.195 13.668c-11.832-.566-20.976-10.619-20.41-22.451.563-11.829 10.619-20.972 22.449-20.407 12.727.591 25.432-2.367 36.605-8.477 10.697-5.851 20.027-14.691 26.647-26.161 6.623-11.473 9.619-23.975 9.334-36.162-.297-12.729-4.084-25.209-10.963-35.936zM57.668 136.69c8.516-14.752 3.461-33.616-11.293-42.134-14.754-8.516-33.618-3.463-42.136 11.291-8.52 14.753-3.463 33.62 11.294 42.135 14.749 8.519 33.613 3.464 42.135-11.292z"/><path fill="#6DB3F2" d="M27.599 233.98c-11.83.562-21.886-8.583-22.45-20.41-.565-11.832 8.579-21.887 20.41-22.449a112.687 112.687 0 0 1 59.196 13.667c17.53 9.584 32.707 23.89 43.347 42.323 10.642 18.43 15.444 38.726 14.979 58.7a112.725 112.725 0 0 1-17.761 58.1c-6.406 9.961-19.683 12.853-29.648 6.45-9.96-6.405-12.852-19.684-6.45-29.647 6.879-10.729 10.666-23.208 10.963-35.937.279-12.189-2.711-24.689-9.334-36.16-6.62-11.47-15.95-20.317-26.647-26.162-11.173-6.11-23.878-9.069-36.605-8.476zm29.969 53.854c-8.522-14.753-27.386-19.81-42.135-11.29C.676 285.061-4.381 303.926 4.139 318.68c8.518 14.753 27.382 19.81 42.136 11.29 14.754-8.517 19.809-27.382 11.293-42.135z"/><path fill="#FF86AE" d="M126.525 362.473c-5.43 10.527-18.374 14.664-28.904 9.235-10.526-5.423-14.66-18.37-9.233-28.897a112.717 112.717 0 0 1 41.432-44.433C146.884 287.989 166.863 282 188.148 282c21.282 0 41.26 5.989 58.325 16.378a112.717 112.717 0 0 1 41.435 44.433c5.425 10.527 1.291 23.474-9.235 28.897-10.53 5.429-23.475 1.292-28.904-9.235-5.85-11.322-14.763-20.843-25.642-27.461-10.412-6.34-22.733-9.998-35.979-9.998-13.248 0-25.573 3.658-35.98 9.998-10.877 6.618-19.79 16.139-25.643 27.461zm61.623.976c-17.037 0-30.846 13.808-30.846 30.845 0 17.034 13.81 30.845 30.846 30.845 17.035 0 30.844-13.811 30.844-30.845 0-17.037-13.809-30.845-30.844-30.845z"/><circle cx="188" cy="212" r="97" fill="#FFF"/><use fill="#FFF" transform="rotate(-7 1082.617 -589.418)" xlink:href="#a"/><path fill="#FF86AE" d="M241.076 211.96c-5.08-6.476-19.2-14.626-32.109-6.663 0 0-13.23 8.611-7.744 25.834 5.485 17.223-1.627 19.153-4.68 21.449-6.695 5.036-7.69 23.56 8.876 26.159 3.936.616 11.246 1.755 26.945-18.035 7.674-9.674 25.39-27.494 8.712-48.745M222.101 191.522c-.651 4.666 1.91 8.882 5.72 9.42 3.81.542 7.428-2.804 8.079-7.466.648-4.664-1.913-8.88-5.724-9.419-3.808-.54-7.425 2.802-8.075 7.465M201.192 191.967c1.015 5.744 5.783 9.741 10.647 8.928 4.867-.808 7.987-6.121 6.968-11.862-1.014-5.744-5.782-9.741-10.648-8.928-4.864.806-7.984 6.122-6.967 11.862M236.572 196.875c-1.41 3.685-.125 7.621 2.874 8.792 2.998 1.176 6.57-.862 7.982-4.544 1.41-3.681.125-7.618-2.873-8.79-2.997-1.175-6.571.86-7.983 4.542M246.267 207.472c-2.038 3.177-1.566 7.107 1.047 8.778 2.616 1.674 6.385.452 8.418-2.724 2.038-3.175 1.57-7.104-1.048-8.775-2.614-1.674-6.384-.454-8.417 2.72"/><path fill="#FF86AE" d="M253.016 218.344c-2.925.953-4.631 3.584-3.81 5.877.82 2.298 3.855 3.386 6.78 2.436 2.924-.953 4.628-3.583 3.809-5.879-.82-2.297-3.855-3.385-6.779-2.434"/><path fill="#6DB3F2" d="M135.924 182.96c5.08-6.476 19.2-14.625 32.109-6.664 0 0 13.23 8.612 7.744 25.836-5.485 17.223 1.626 19.153 4.68 21.447 6.695 5.037 7.69 23.56-8.875 26.16-3.936.615-11.245 1.756-26.945-18.035-7.674-9.674-25.392-27.493-8.713-48.744M154.898 161.523c.653 4.664-1.907 8.88-5.719 9.42-3.811.54-7.428-2.804-8.077-7.465-.653-4.666 1.908-8.883 5.72-9.42 3.81-.542 7.426 2.804 8.076 7.465M175.808 161.968c-1.015 5.743-5.783 9.74-10.648 8.927-4.867-.808-7.985-6.121-6.968-11.863 1.016-5.744 5.783-9.741 10.649-8.927 4.865.807 7.983 6.12 6.967 11.863M140.426 167.874c1.413 3.684.126 7.62-2.87 8.794-3 1.174-6.571-.864-7.982-4.545-1.413-3.685-.126-7.62 2.872-8.79 2.996-1.176 6.57.86 7.98 4.541M130.734 177.472c2.037 3.176 1.565 7.106-1.048 8.776-2.615 1.676-6.385.456-8.42-2.72-2.036-3.177-1.566-7.107 1.05-8.777 2.614-1.674 6.383-.454 8.418 2.72"/><path fill="#6DB3F2" d="M123.984 189.343c2.926.952 4.631 3.585 3.81 5.879-.82 2.297-3.855 3.385-6.782 2.434-2.922-.953-4.627-3.584-3.806-5.877.818-2.298 3.854-3.386 6.778-2.436"/></g></svg>