<svg xmlns="http://www.w3.org/2000/svg" width="18" height="19" fill="none"><g fill="#449AFF" clip-path="url(#clip0)"><path d="M17.46 4.622h-6.342V1.995c0-.314-.242-.57-.54-.57H7.025c-.298 0-.539.256-.539.57v2.627H.539c-.298 0-.539.255-.539.57v11.813c0 .314.241.57.54.57h16.92c.299 0 .54-.256.54-.57V5.192c0-.315-.241-.57-.54-.57zm-7.42-2.058V5.9c0 .72-.555 1.307-1.238 1.307-.683 0-1.238-.587-1.238-1.307V2.564h2.475zm6.881 13.872H1.08V5.76h5.406c0 1.63 1.134 2.583 2.317 2.583 1.183 0 2.316-.951 2.316-2.583h5.803v10.675z"/><path d="M9.96 9.587c0 .314.241.57.54.57h4.526c.298 0 .54-.256.54-.57 0-.315-.242-.57-.54-.57H10.5c-.298 0-.539.255-.539.57zm5.066 1.512H10.5c-.298 0-.539.255-.539.569 0 .314.241.57.54.57h4.526c.298 0 .54-.256.54-.57 0-.314-.242-.57-.54-.57zm0 2.08H10.5c-.298 0-.539.255-.539.569 0 .314.241.57.54.57h4.526c.298 0 .54-.256.54-.57 0-.314-.242-.57-.54-.57zM6.21 9.018H2.92a.554.554 0 0 0-.54.569v4.161c0 .315.241.57.54.57h3.29c.297 0 .538-.255.538-.57V9.587c0-.315-.241-.57-.539-.57zm-.54 4.161H3.458v-3.023H5.67v3.023z"/></g><defs><clipPath id="clip0"><path fill="#fff" d="M0 0h18v19H0z"/></clipPath></defs></svg>