<svg xmlns="http://www.w3.org/2000/svg" width="18" height="18" fill="none"><path fill="#449AFF" d="M8.98 15.816a6.83 6.83 0 0 1-1.297-.124l-1.029.743a7.775 7.775 0 0 0 4.679-.009l-1.024-.74c-.43.085-.875.13-1.33.13zM7.34 2.385l.348-1.067a7.815 7.815 0 0 0-5.897 4.684L2.861 6A6.844 6.844 0 0 1 7.34 2.385zM2.21 9.8l-1.02-.745c.015 2.097.862 4 2.227 5.393l.345-1.068A6.788 6.788 0 0 1 2.21 9.8zm13.535.031a6.788 6.788 0 0 1-1.518 3.515l.345 1.071a7.763 7.763 0 0 0 2.196-5.333l-1.023.747zM15.099 6l1.07.002a7.815 7.815 0 0 0-5.854-4.677l.35 1.07a6.845 6.845 0 0 1 4.434 3.604z"/><path fill="#449AFF" d="M14.562 17.56l-2.106-6.533L18 6.979l-6.864-.015L9 .44 6.864 6.964 0 6.979l5.544 4.048-2.106 6.533L9 13.538l5.562 4.022z"/></svg>