<svg xmlns="http://www.w3.org/2000/svg" width="32" height="32" fill="none"><path fill="#449AFF" d="M25.29 19.823c-.655-.683-1.445-1.047-2.282-1.047-.831 0-1.628.358-2.31 1.04l-2.135 2.127c-.175-.094-.35-.182-.52-.27a8.285 8.285 0 0 1-.668-.358c-2-1.27-3.816-2.924-5.559-5.065-.844-1.067-1.411-1.966-1.823-2.877.554-.507 1.067-1.034 1.567-1.54.189-.19.378-.385.567-.574 1.418-1.419 1.418-3.256 0-4.674l-1.844-1.844a29.18 29.18 0 0 1-.628-.641c-.405-.42-.83-.851-1.27-1.257-.655-.648-1.438-.992-2.262-.992-.824 0-1.621.344-2.296.992l-.014.014-2.296 2.316A4.941 4.941 0 0 0 .05 8.314c-.162 1.972.419 3.81.865 5.011 1.094 2.952 2.728 5.687 5.166 8.618 2.959 3.532 6.518 6.322 10.584 8.287 1.553.736 3.626 1.608 5.943 1.756.142.007.29.014.425.014 1.56 0 2.87-.56 3.897-1.675.007-.014.02-.02.027-.034.352-.425.757-.81 1.182-1.223.29-.276.588-.567.878-.87.669-.696 1.02-1.507 1.02-2.338 0-.837-.358-1.64-1.04-2.316l-3.708-3.721zm2.418 7.111c-.007 0-.007.007 0 0-.263.284-.533.54-.824.824-.439.419-.885.858-1.303 1.351-.683.73-1.486 1.074-2.54 1.074-.101 0-.21 0-.31-.007-2.006-.128-3.87-.912-5.268-1.58-3.823-1.85-7.18-4.478-9.97-7.808-2.302-2.776-3.842-5.342-4.862-8.098-.628-1.681-.858-2.991-.756-4.227a3.1 3.1 0 0 1 .932-2.006L5.11 4.154c.33-.311.682-.48 1.026-.48.426 0 .77.257.986.473l.02.02c.413.385.804.784 1.216 1.21.21.215.426.431.642.654l1.844 1.844c.716.716.716 1.378 0 2.094-.196.196-.385.391-.581.58a35.261 35.261 0 0 1-1.695 1.648c-.014.014-.027.02-.034.034-.58.581-.473 1.148-.351 1.533l.02.061c.48 1.162 1.155 2.256 2.182 3.56l.006.006c1.864 2.296 3.83 4.086 5.998 5.457.277.176.56.318.83.453.244.121.473.236.67.358.026.013.053.034.08.047.23.115.446.169.669.169.56 0 .911-.351 1.026-.466l2.31-2.31c.23-.23.595-.507 1.02-.507.419 0 .763.264.973.494l.013.013 3.721 3.721c.696.69.696 1.398.007 2.114zM17.294 7.612a8.564 8.564 0 0 1 4.66 2.418 8.609 8.609 0 0 1 2.417 4.66c.075.446.46.757.899.757.054 0 .101-.007.155-.014.5-.08.83-.553.75-1.053a10.417 10.417 0 0 0-2.925-5.64 10.417 10.417 0 0 0-5.64-2.924.917.917 0 0 0-1.053.743.902.902 0 0 0 .737 1.053zm14.669 6.504a17.138 17.138 0 0 0-4.816-9.287A17.137 17.137 0 0 0 17.861.014a.908.908 0 0 0-1.047.743c-.081.5.25.966.75 1.053 3.147.534 6.017 2.027 8.3 4.303a15.3 15.3 0 0 1 4.302 8.3c.075.446.46.756.898.756a.895.895 0 0 0 .898-1.054z"/></svg>