<svg xmlns="http://www.w3.org/2000/svg" width="86" height="118" fill="none"><path fill="#C6C6C6" d="M80.712 41.658H5.288A5.294 5.294 0 0 0 0 46.946v47.878a5.294 5.294 0 0 0 5.288 5.288h32.337a1.26 1.26 0 1 0 0-2.52H5.288a2.771 2.771 0 0 1-2.768-2.768V46.946a2.771 2.771 0 0 1 2.768-2.768h75.424a2.771 2.771 0 0 1 2.769 2.768v6.443a1.26 1.26 0 1 0 2.519 0v-6.443a5.294 5.294 0 0 0-5.288-5.288z"/><path fill="#C6C6C6" d="M84.74 57.615a1.26 1.26 0 0 0-1.26 1.26v35.949a2.771 2.771 0 0 1-2.768 2.768h-4.896c2.707-4.304 4.21-9.168 4.47-14.462a1.936 1.936 0 0 0-.375-1.245c-3.489-4.71-9.23-7.305-16.167-7.305-6.937 0-12.678 2.594-16.166 7.305-.265.357-.398.8-.376 1.245.261 5.334 1.786 10.224 4.444 14.462H43a1.26 1.26 0 1 0 0 2.52h10.42c2.454 3.122 5.596 5.813 9.362 7.974a1.925 1.925 0 0 0 1.924 0c3.727-2.139 6.858-4.814 9.337-7.974h6.67A5.294 5.294 0 0 0 86 94.824V58.875a1.26 1.26 0 0 0-1.26-1.26zm-20.996 48.116c-8.491-4.986-13.48-12.951-14.015-22.515 3.015-3.946 7.982-6.116 14.015-6.116s11 2.17 14.015 6.116c-.547 9.752-5.695 17.629-14.015 22.515zM37.187 73.716V52.407c0-2.25-1.83-4.08-4.08-4.08H10.481a4.086 4.086 0 0 0-4.081 4.08v2.437a1.26 1.26 0 1 0 2.52 0v-2.437c0-.86.7-1.561 1.56-1.561h22.625c.86 0 1.561.7 1.561 1.561v21.31c0 .86-.7 1.561-1.561 1.561h-1.2v-3.967c0-4.13-2.491-7.69-6.05-9.258a5.777 5.777 0 0 0 1.733-4.128c0-3.196-2.6-5.795-5.795-5.795a5.802 5.802 0 0 0-5.795 5.795c0 1.614.663 3.076 1.732 4.128-3.559 1.567-6.049 5.127-6.049 9.258v3.967h-1.2c-.861 0-1.562-.7-1.562-1.562v-13.58a1.26 1.26 0 1 0-2.52 0v13.58a4.087 4.087 0 0 0 4.082 4.082h22.624a4.086 4.086 0 0 0 4.081-4.082zM18.52 57.925a3.28 3.28 0 0 1 3.275-3.276 3.28 3.28 0 0 1 3.275 3.276 3.28 3.28 0 0 1-3.275 3.275 3.28 3.28 0 0 1-3.276-3.275zm-4.317 17.353V71.31c0-4.186 3.406-7.592 7.592-7.592s7.592 3.406 7.592 7.592v3.967H14.202z"/><path fill="#C6C6C6" d="M63.769 80.596h-.026a4.695 4.695 0 0 0-4.697 4.697c0 1.167.43 2.286 1.213 3.15a.17.17 0 0 1 .03.106v6.838a3.452 3.452 0 0 0 3.55 3.453c1.852-.05 3.359-1.62 3.359-3.499v-6.808a.19.19 0 0 1 .053-.115 4.685 4.685 0 0 0 1.189-3.223c-.052-2.523-2.147-4.586-4.671-4.6zm1.601 6.146a2.695 2.695 0 0 0-.692 1.79v6.81c0 .526-.407.966-.907.98a.934.934 0 0 1-.962-.935v-6.838c0-.672-.242-1.309-.681-1.795a2.176 2.176 0 0 1 1.616-3.639h.011a2.191 2.191 0 0 1 2.166 2.132 2.172 2.172 0 0 1-.55 1.495zm-31.145-5.817H9.365a1.26 1.26 0 1 0 0 2.52h24.86a1.26 1.26 0 1 0 0-2.52zm0 5.459H9.365a1.26 1.26 0 1 0 0 2.52h24.86a1.26 1.26 0 1 0 0-2.52zm17.11-31.776h24.523a1.26 1.26 0 1 0 0-2.52H51.335a1.26 1.26 0 1 0 0 2.52zm0 6.215h24.523a1.26 1.26 0 1 0 0-2.52H51.335a1.26 1.26 0 1 0 0 2.52zm0 6.215h24.523a1.26 1.26 0 1 0 0-2.52H51.335a1.26 1.26 0 1 0 0 2.52z"/><g clip-path="url(#clip0)"><path fill="#C6C6C6" d="M43.53 29.115l-8.784-8.784a1.373 1.373 0 0 1 1.94-1.94l6.441 6.44V1.372a1.372 1.372 0 0 1 2.745 0v23.459l6.441-6.44a1.372 1.372 0 1 1 1.941 1.94l-8.784 8.784a1.372 1.372 0 0 1-1.94 0z"/></g><defs><clipPath id="clip0"><path fill="#fff" d="M0 0h29.517v29.517H0z" transform="matrix(0 1 1 0 29.741 0)"/></clipPath></defs></svg>