<svg xmlns="http://www.w3.org/2000/svg" width="77" height="106" fill="none"><path fill="#C6C6C6" d="M69.48 36.996h-9.54a1.504 1.504 0 0 0 0 3.008h9.542a4.517 4.517 0 0 1 4.511 4.512v.902H3.008v-.902a4.517 4.517 0 0 1 4.512-4.512h40.387a1.504 1.504 0 0 0 0-3.008H7.52c-4.147 0-7.52 3.373-7.52 7.52v45.718c0 4.147 3.373 7.52 7.52 7.52h61.96c4.147 0 7.52-3.373 7.52-7.52V44.516c0-4.147-3.373-7.52-7.52-7.52zm0 57.75H7.52a4.517 4.517 0 0 1-4.512-4.512v-.902h30.027a1.504 1.504 0 0 0 0-3.008H3.008V48.426h70.984v37.898H45.066a1.504 1.504 0 0 0 0 3.008h28.926v.902a4.517 4.517 0 0 1-4.511 4.512z"/><path fill="#C6C6C6" d="M53.923 40.004c.395 0 .783-.161 1.063-.44.28-.28.44-.669.44-1.064s-.16-.783-.44-1.063a1.51 1.51 0 0 0-1.063-.44c-.396 0-.784.16-1.063.44-.28.28-.441.668-.441 1.063 0 .395.16.783.44 1.063.28.28.668.44 1.064.44zM39.05 86.324c-.395 0-.783.161-1.063.44-.28.28-.44.669-.44 1.064 0 .396.16.784.44 1.063.28.28.668.441 1.064.441.395 0 .783-.16 1.063-.44.28-.28.44-.668.44-1.064 0-.395-.16-.783-.44-1.063-.28-.28-.668-.44-1.063-.44zm-12.844-34.89H10.49a4.48 4.48 0 0 0-4.474 4.474v15.716a4.48 4.48 0 0 0 4.474 4.474h15.716a4.48 4.48 0 0 0 4.474-4.474V55.908a4.48 4.48 0 0 0-4.474-4.474zM10.49 54.44h15.716c.808 0 1.466.658 1.466 1.467v14.516a10.037 10.037 0 0 0-5.146-5.503 5.203 5.203 0 0 0 1.053-3.143 5.237 5.237 0 0 0-5.231-5.231 5.237 5.237 0 0 0-5.231 5.231c0 1.179.392 2.268 1.052 3.143a10.037 10.037 0 0 0-5.146 5.503V55.908c0-.809.658-1.467 1.467-1.467zm5.634 7.337c0-1.226.998-2.223 2.224-2.223 1.226 0 2.223.997 2.223 2.223A2.226 2.226 0 0 1 18.348 64a2.226 2.226 0 0 1-2.224-2.223zm2.224 5.231c3.542 0 6.475 2.656 6.915 6.08h-13.83c.44-3.424 3.372-6.08 6.915-6.08zm28.807 12.863v.738a1.504 1.504 0 0 0 3.008 0v-.738h11.865v.738a1.504 1.504 0 0 0 3.008 0v-.738h2.792c.83 0 1.504-.673 1.504-1.504v-6.069c0-1.303-.597-2.47-1.531-3.24l.388-.388a1.504 1.504 0 0 0-2.127-2.127l-.108.107-.837-3.407a4.373 4.373 0 0 0-4.256-3.338H51.33a4.373 4.373 0 0 0-4.256 3.337l-.837 3.408-.108-.107a1.504 1.504 0 0 0-2.127 2.127l.388.387a4.195 4.195 0 0 0-1.53 3.241v6.069c0 .83.673 1.504 1.503 1.504h2.792zm19.169-3.008H45.867v-4.565c0-.658.536-1.193 1.194-1.193h18.072c.657.001 1.19.536 1.19 1.193v4.565zM51.33 62.913h9.531c.635 0 1.184.43 1.335 1.047l1.017 4.137H48.979l1.016-4.137c.151-.616.7-1.047 1.335-1.047z"/><path fill="#C6C6C6" d="M49.086 72.48c-.397 0-.785.161-1.065.441-.28.28-.439.668-.439 1.063 0 .396.16.784.44 1.064.279.28.667.44 1.064.44.395 0 .784-.16 1.063-.44.28-.28.44-.668.44-1.064 0-.397-.16-.783-.44-1.063-.28-.28-.668-.44-1.063-.44zm14.019 0c-.395 0-.783.161-1.063.441-.28.28-.44.668-.44 1.063 0 .396.16.784.44 1.064s.668.44 1.063.44c.398 0 .784-.16 1.065-.44.28-.28.44-.668.44-1.064 0-.395-.16-.783-.44-1.063a1.519 1.519 0 0 0-1.065-.44zM35.191 55.645h10.873a1.504 1.504 0 0 0 0-3.008H35.19a1.504 1.504 0 0 0 0 3.008zm0 6.918h3.76a1.504 1.504 0 0 0 0-3.008h-3.76a1.504 1.504 0 0 0 0 3.008zm5.264 5.414c0-.831-.673-1.504-1.504-1.504h-3.76a1.504 1.504 0 0 0 0 3.008h3.76c.83 0 1.504-.674 1.504-1.504zm11.639-12.332h10.872a1.504 1.504 0 0 0 0-3.008H52.094a1.504 1.504 0 0 0 0 3.008zM14.57 79.155H7.52a1.504 1.504 0 0 0 0 3.008h7.05a1.504 1.504 0 0 0 0-3.008zm14.606 0h-7.069a1.504 1.504 0 0 0 0 3.008h7.069a1.504 1.504 0 0 0 0-3.008z"/><g clip-path="url(#clip0)"><path fill="#C6C6C6" d="M37.53 29.115l-8.784-8.784a1.373 1.373 0 0 1 1.94-1.94l6.441 6.44V1.372a1.372 1.372 0 0 1 2.745 0v23.459l6.441-6.44a1.372 1.372 0 1 1 1.941 1.94l-8.784 8.784a1.372 1.372 0 0 1-1.94 0z"/></g><defs><clipPath id="clip0"><path fill="#fff" d="M0 0h29.517v29.517H0z" transform="matrix(0 1 1 0 23.741 0)"/></clipPath></defs></svg>