<svg xmlns="http://www.w3.org/2000/svg" width="16" height="16" fill="none"><path fill="#449AFF" d="M7.974 8.933a4.283 4.283 0 0 0 4.282-4.283A4.272 4.272 0 0 0 7.974.38 4.28 4.28 0 0 0 3.69 4.65a4.292 4.292 0 0 0 4.283 4.283zm0-7.436a3.162 3.162 0 0 1 3.153 3.153 3.162 3.162 0 0 1-3.153 3.153A3.162 3.162 0 0 1 4.82 4.65a3.162 3.162 0 0 1 3.153-3.153zM.565 15.62h14.87a.56.56 0 0 0 .565-.566 5.38 5.38 0 0 0-5.373-5.372H5.373A5.38 5.38 0 0 0 0 15.054c0 .316.25.565.565.565zm4.808-4.809h5.254a4.24 4.24 0 0 1 4.204 3.678H1.169a4.252 4.252 0 0 1 4.204-3.678z"/></svg>