<svg xmlns="http://www.w3.org/2000/svg" width="17" height="17" fill="none"><path fill="#449AFF" d="M11.702 7.305a.664.664 0 0 0-.664-.664h-6.84a.664.664 0 1 0 0 1.328h6.84a.664.664 0 0 0 .664-.664zM4.198 9.297a.664.664 0 1 0 0 1.328h4.154a.664.664 0 1 0 0-1.328H4.198z"/><path fill="#449AFF" d="M5.759 15.672h-2.22a1.33 1.33 0 0 1-1.329-1.328V2.656a1.33 1.33 0 0 1 1.328-1.328h8.164a1.33 1.33 0 0 1 1.329 1.328V6.74a.664.664 0 1 0 1.328 0V2.656A2.66 2.66 0 0 0 11.702 0H3.538A2.66 2.66 0 0 0 .882 2.656v11.688A2.66 2.66 0 0 0 3.538 17H5.76a.664.664 0 1 0 0-1.328z"/><path fill="#449AFF" d="M15.535 9.614a1.994 1.994 0 0 0-2.817 0L9.072 13.25a.664.664 0 0 0-.166.277l-.794 2.614a.664.664 0 0 0 .812.833l2.68-.742a.677.677 0 0 0 .293-.17l3.638-3.632a1.994 1.994 0 0 0 0-2.817zm-4.453 5.385l-1.349.374.395-1.3 2.46-2.454.94.94-2.446 2.44zm3.514-3.507l-.129.128-.939-.939.128-.128a.665.665 0 0 1 .94.939zm-3.558-7.508h-6.84a.664.664 0 1 0 0 1.329h6.84a.664.664 0 0 0 0-1.329z"/></svg>